<?xml version="1.0" encoding="utf-8"?>
<svg width="442px" height="119px" viewBox="0 0 442 119" version="1.1" xmlns:xlink="http://www.w3.org/1999/xlink" xmlns="http://www.w3.org/2000/svg">
  <desc>Created with Lunacy</desc>
  <path d="M42 14.125L23.9375 0L5.75 14.125L12.3125 21.1875L23.8125 12.875L34.875 21.5625L42 14.125ZM366 57.0001C366.026 45.9641 365.912 11.1148 365.912 11.1148L349.152 11.1117L343.503 24.085L351.883 24.023C351.883 24.023 352.256 38.486 352 59C351.744 79.514 369.241 85.1242 378 85C379.682 78.0478 378.889 81.1282 381 72.5C369.455 69.2722 365.974 68.0361 366 57.0001ZM17.0623 29L31.0625 29C31.0625 29 30.375 58.6882 31 83.0009C31.625 107.314 19.9549 112.459 3.00001 117.501C2.8386 116.593 1.62675 111.675 0.793549 108.293C0.335478 106.434 -0.00814657 105.04 0.00014698 105.031C14.7424 100.914 17.172 93.7899 17 83.0009C16.9843 77.0243 17.0623 29 17.0623 29ZM40 56.5C40 41.3122 52.536 29 68 29C83.464 29 96 41.3122 96 56.5C96 71.6878 83.464 84 68 84C52.536 84 40 71.6878 40 56.5ZM131 29C115.536 29 103 41.3122 103 56.5C103 71.6878 115.536 84 131 84C146.464 84 159 71.6878 159 56.5C159 41.3122 146.464 29 131 29ZM174.094 82.0888L174 43L165.452 43.0765L172 29L188 29C188 29 187.753 30.8025 188 35C191.128 32.6955 197.025 30.4815 201 29C202.424 34.1029 203.348 36.4794 204.5 41.5C200.879 42.0761 188.003 49.6609 188.003 60.7719L188.003 82.0888L174.094 82.0888ZM211 29C211 29 223.23 29.0823 239 29C256.992 29.1646 269.247 39.8043 269 57.5C268.753 75.1957 269.001 83 269.001 83L255.001 83C255.001 83 254.919 64.0677 255.001 56.0001C255.082 47.9325 249.238 42.912 243.148 42.8297C237.057 42.7473 232.86 42.9943 232.86 42.9943L233 83L219 83L219.032 43.2412L211.049 42.912L211 29ZM334 29L320 29L306 29C290.536 29 278 41.3122 278 56.5C278 71.6878 290.536 84 306 84C311.1 84 315.882 82.6608 320 80.321L320 83L334 83L334 29ZM385 57.5C385 42.3122 397.536 30 413 30C428.464 30 441 42.3122 441 57.5C441 72.6878 428.464 85 413 85C397.536 85 385 72.6878 385 57.5ZM54 56.5C54 49.0442 60.0442 43 67.5 43C74.9558 43 81 49.0442 81 56.5C81 63.9558 74.9558 70 67.5 70C60.0442 70 54 63.9558 54 56.5ZM130.5 43C123.044 43 117 49.0442 117 56.5C117 63.9558 123.044 70 130.5 70C137.956 70 144 63.9558 144 56.5C144 49.0442 137.956 43 130.5 43ZM319 43L305 43L305 43.0091C297.776 43.2721 292 49.2116 292 56.5C292 63.9559 298.044 70 305.5 70C312.788 70 318.728 64.2242 318.991 57L319 57L319 43ZM399 57.5C399 50.0442 405.044 44 412.5 44C419.956 44 426 50.0442 426 57.5C426 64.9558 419.956 71 412.5 71C405.044 71 399 64.9558 399 57.5Z" transform="translate(0.5 0.5)" id="New-shape-Union" fill-rule="evenodd" stroke="none" />
</svg>